# xmcd
#
# Track frame offsets:
#	150
#	119768
#	236081
#
# Disc length: 3797 seconds
#
# Revision: 1
# Processed by: cddbd v1.4PL0 Copyright (c) Steve Scherf et al.
# Submitted via: EasyCDDAExtractor 6.2.0.3
#
DISCID=260ed303
DTITLE=Led zeppelin - 3-17-1973 Munich
DYEAR=1973
DGENRE=blues
TTITLE0=Dazed and Confused
TTITLE1=Whole lotta love
TTITLE2=Heartbreaker
EXTD=
EXTT0=
EXTT1=
EXTT2=
PLAYORDER=
